<svg xmlns="http://www.w3.org/2000/svg" viewBox="0 0 120 120" fill="none" id="advantages-1">
    <g filter="url(#filter0_d_1457_20710)">
        <rect x="25" y="21" width="70" height="70" rx="15" fill="#CF51CE"/>
    </g>
    <g clip-path="url(#clip0_1457_20710)">
        <path d="M70.8749 46.55C69.5249 47.9 68.1749 49.25 66.7499 50.675C68.3999 52.85 68.9999 55.325 68.3999 58.025C67.8749 60.125 66.6749 61.85 64.8749 63.05C61.3499 65.525 56.6249 65 53.6999 61.85C50.6999 58.625 50.5499 53.9 53.3999 50.525C55.9499 47.45 60.8999 45.95 65.3249 49.175C66.6749 47.825 68.0249 46.475 69.3749 45.05C66.9749 43.025 64.1999 41.825 60.8999 41.6C60.8999 42.5 60.8999 43.325 60.8999 44.225C60.8999 44.975 60.5249 45.425 59.9249 45.425C59.3249 45.425 58.9499 44.975 58.9499 44.225C58.9499 42.275 58.9499 40.4 58.9499 38.45C58.9499 38.225 58.9499 38 58.9499 37.775C57.0749 37.85 55.2749 38.225 53.5499 38.9C47.5499 41.3 43.7249 45.65 42.1499 51.95C42.1499 52.1 42.0749 52.175 42.0749 52.325C41.9249 52.85 41.4749 53.15 40.9499 53.075C40.4249 52.925 40.1249 52.475 40.1999 51.875C40.7249 49.175 41.7749 46.7 43.3499 44.525C47.0999 39.5 51.9749 36.575 58.1999 35.975C58.4249 35.975 58.7249 35.9 59.0249 35.9C59.0249 35.075 59.0249 34.175 59.0249 33.35C59.0249 32.45 59.3249 32 59.9999 32C60.5999 32 60.9749 32.45 60.9749 33.275C60.9749 35.225 60.9749 37.1 60.9749 39.05C60.9749 39.275 60.9749 39.5 60.9749 39.725C64.7249 40.025 68.0249 41.375 70.7999 43.775C71.2499 43.325 71.6249 42.875 72.1499 42.35C71.1749 41.675 70.2749 40.925 69.2249 40.325C67.5749 39.35 65.8499 38.6 63.9749 38.225C63.8249 38.225 63.6749 38.15 63.5999 38.15C63.0749 38 62.7749 37.475 62.9249 36.95C63.0749 36.425 63.5249 36.125 64.1249 36.275C66.5249 36.725 68.6999 37.625 70.7249 38.975C71.6999 39.65 72.5999 40.325 73.7249 41.15C73.7999 40.85 74.0249 40.625 74.0249 40.4C74.0249 39.35 74.0249 38.375 74.0249 37.325C74.0249 36.95 74.1749 36.5 74.4749 36.275C75.6749 35 76.9499 33.725 78.2249 32.45C78.5999 32.075 78.9749 31.925 79.4249 32.15C79.8749 32.3 80.0249 32.75 80.0249 33.2C80.0249 34.175 80.0249 35.075 80.0249 36.125C80.9999 36.125 81.9749 36.125 82.9499 36.125C83.4749 36.125 83.8499 36.275 84.0749 36.725C84.2249 37.25 84.0749 37.625 83.6999 37.925C82.4249 39.125 81.2249 40.4 80.0249 41.6C79.7249 41.9 79.2749 42.05 78.8999 42.05C77.9249 42.125 76.8749 42.05 75.8999 42.05C75.6749 42.05 75.3749 42.275 75.0749 42.35C76.7249 44.225 77.9249 46.1 78.8249 48.275C79.7249 50.45 80.1749 52.625 80.3249 55.025C81.2249 55.025 82.1249 55.025 82.9499 55.025C83.6999 55.025 84.1499 55.4 84.1499 56C84.1499 56.6 83.6999 56.975 82.9499 56.975C80.9999 56.975 79.0499 56.975 77.0999 56.975C76.8749 56.975 76.6499 56.975 76.5749 56.975C76.1249 58.625 75.8999 60.275 75.2999 61.775C73.3499 66.8 69.7499 70.1 64.5749 71.675C64.4249 71.675 64.3499 71.75 64.1999 71.75C63.5999 71.9 63.1499 71.6 62.9999 71.075C62.8499 70.55 63.1499 70.1 63.7499 69.875C64.1249 69.725 64.4999 69.65 64.7999 69.5C70.4999 67.325 73.7249 63.125 74.3999 57.125C74.3999 57.05 74.3999 57.05 74.3999 56.9C73.5749 56.9 72.6749 56.9 71.8499 56.9C71.0999 56.9 70.6499 56.525 70.6499 55.925C70.6499 55.325 71.0999 54.95 71.8499 54.95C73.7999 54.95 75.6749 54.95 77.6249 54.95C77.8499 54.95 78.0749 54.95 78.2999 54.95C77.9999 50.675 76.4999 46.925 73.7249 43.775C73.2749 44.225 72.8249 44.675 72.3749 45.125C72.4499 45.2 72.5249 45.35 72.6749 45.5C74.0999 47.225 75.1499 49.175 75.7499 51.35C76.0499 52.25 75.8249 52.775 75.2249 53C74.6249 53.15 74.1749 52.775 73.9499 51.95C73.1999 50 72.2249 48.2 70.8749 46.55ZM63.8999 50.675C61.6499 48.8 57.7499 48.65 55.1249 51.35C52.5749 54.05 52.5749 58.025 55.1999 60.65C57.8249 63.275 61.8749 63.35 64.4999 60.8C67.1999 58.25 67.1999 54.35 65.2499 51.95C64.8749 52.325 64.5749 52.625 64.1999 53C63.8999 53.225 63.9749 53.45 64.1249 53.75C64.6499 54.8 64.8749 55.85 64.5749 56.975C63.9749 59.6 61.2749 61.25 58.7249 60.575C56.0999 59.9 54.5249 57.125 55.2749 54.575C56.0999 51.95 58.8749 50.375 61.3499 51.425C62.3999 51.875 62.9999 51.575 63.5249 50.825C63.7499 50.825 63.8249 50.75 63.8999 50.675ZM62.5499 54.725C61.8749 55.4 61.2749 56.075 60.6749 56.675C60.2999 57.05 59.7749 57.05 59.3999 56.675C59.0249 56.3 58.9499 55.85 59.2499 55.4C59.3999 55.25 59.5499 55.1 59.6999 54.95C60.2249 54.425 60.7499 53.9 61.2749 53.375C59.8499 52.775 58.4249 53.225 57.6749 54.35C56.9249 55.475 57.0749 56.975 58.0499 57.95C59.0249 58.925 60.4499 59.075 61.6499 58.325C62.6999 57.575 63.1499 56.15 62.5499 54.725ZM75.8999 40.1C76.7249 40.1 77.4749 40.1 78.2249 40.1C78.3749 40.1 78.5999 40.1 78.6749 40.025C79.2749 39.425 79.9499 38.75 80.6999 38C80.0249 38 79.4999 38 79.0499 38C78.3749 38 77.9999 37.625 77.9999 36.95C77.9999 36.425 77.9999 35.9 77.9999 35.225C77.2499 35.975 76.6499 36.575 76.0499 37.175C75.9749 37.25 75.8999 37.4 75.8999 37.55C75.8249 38.45 75.8999 39.2 75.8999 40.1Z" fill="white"/>
        <path d="M39.7498 56.975C38.9248 56.975 38.0248 56.975 37.1248 56.975C36.3748 56.975 35.9248 56.6 35.9248 56C35.9248 55.4 36.3748 55.1 37.0498 55.025C39.2248 55.025 41.3248 55.025 43.4998 55.025C43.7998 53.75 43.9498 52.55 44.3248 51.35C44.6248 50.375 45.0748 49.4 45.4498 48.5C45.7498 47.9 46.2748 47.675 46.7998 47.975C47.3248 48.275 47.4748 48.8 47.0998 49.4C46.1998 51.2 45.5998 53.075 45.5248 55.1C46.3498 55.1 47.0998 55.1 47.9248 55.1C48.8248 55.1 49.2748 55.4 49.3498 56.075C49.3498 56.75 48.8998 57.05 47.9248 57.05C46.0498 57.05 44.2498 57.05 42.3748 57.05C42.1498 57.05 41.9248 57.05 41.6998 57.05C41.7748 58.625 41.9998 60.125 42.5248 61.55C44.7748 68.075 49.1998 72.2 55.8748 73.85C56.0998 73.925 56.3998 74 56.6248 74.15C56.9998 74.45 57.1498 74.825 56.9248 75.275C56.6998 75.725 56.3248 75.95 55.7998 75.875C53.4748 75.35 51.2248 74.525 49.1998 73.25C43.7998 69.5 40.6498 64.4 39.8998 57.8C39.8998 57.575 39.8248 57.35 39.8248 57.125C39.8248 57.125 39.8248 57.05 39.7498 56.975Z" fill="white"/>
        <path d="M60.9748 76.175C60.9748 77.075 60.9748 77.9 60.9748 78.8C60.9748 79.55 60.5998 80 59.9998 80C59.3998 80 59.0248 79.55 59.0248 78.8C59.0248 76.85 59.0248 74.9 59.0248 72.95C59.0248 72.725 59.0248 72.5 59.0248 72.35C58.0498 72.2 57.1498 72.05 56.2498 71.825C50.1748 70.25 46.1998 66.5 44.3248 60.5C44.2498 60.275 44.1748 60.125 44.1748 59.9C44.1748 59.375 44.3998 59.075 44.8498 58.925C45.2998 58.775 45.7498 58.925 45.9748 59.375C46.0498 59.6 46.1248 59.825 46.1998 60.05C47.8498 65.75 53.1748 70.1 59.0248 70.325C59.0248 69.5 59.0248 68.6 59.0248 67.775C59.0248 67.025 59.3998 66.575 59.9248 66.575C60.5248 66.575 60.8998 67.025 60.8998 67.775C60.8998 69.65 60.8998 71.6 60.8998 73.475C60.8998 73.7 60.8998 73.925 60.8998 74.3C62.0998 74.075 63.2998 73.925 64.4248 73.7C66.4498 73.25 68.2498 72.425 69.9748 71.3C70.1248 71.225 70.2748 71.075 70.4248 71C70.8748 70.85 71.2498 70.925 71.5498 71.3C71.8498 71.675 71.7748 72.125 71.4748 72.425C71.3248 72.575 71.0998 72.725 70.8748 72.875C67.9498 74.75 64.7248 75.8 61.2748 76.1C61.2748 76.1 61.1248 76.175 60.9748 76.175Z" fill="white"/>
        <path d="M76.3505 67.3249C75.3755 67.3249 75.0005 66.5749 75.3755 65.7499C76.0505 64.3999 76.7255 62.975 77.3255 61.55C77.5505 60.95 77.7005 60.275 77.8505 59.675C78.0005 59.075 78.4505 58.7749 78.9755 58.8499C79.5005 58.9999 79.8005 59.4499 79.7255 60.1249C79.2755 62.5249 78.3755 64.6999 77.0255 66.7249C76.8005 67.0249 76.5005 67.2499 76.3505 67.3249Z" fill="white"/>
        <path d="M51.3754 44.225C51.1504 44 50.7754 43.775 50.6254 43.4C50.4004 42.95 50.7004 42.575 51.0754 42.275C52.5004 41.375 54.0754 40.625 55.7254 40.25C56.2504 40.1 56.6254 40.25 56.8504 40.7C57.1504 41.225 56.9254 41.9 56.3254 42.125C54.7504 42.575 53.3254 43.175 51.9754 44.075C51.9004 44.075 51.7504 44.075 51.3754 44.225Z" fill="white"/>
        <path d="M49.6504 45.65C49.6504 46.175 49.2004 46.55 48.6754 46.55C48.1504 46.55 47.7754 46.1 47.7754 45.575C47.7754 45.05 48.2254 44.675 48.7504 44.675C49.2004 44.675 49.6504 45.125 49.6504 45.65Z" fill="white"/>
        <path d="M74.7 69.35C74.7 69.875 74.25 70.325 73.725 70.325C73.2 70.325 72.75 69.95 72.75 69.425C72.75 68.9 73.125 68.45 73.65 68.45C74.25 68.45 74.7 68.825 74.7 69.35Z" fill="white"/>
    </g>
    <defs>
        <filter id="filter0_d_1457_20710" x="0" y="0" width="120" height="120" filterUnits="userSpaceOnUse" color-interpolation-filters="sRGB">
            <feFlood flood-opacity="0" result="BackgroundImageFix"/>
            <feColorMatrix in="SourceAlpha" type="matrix" values="0 0 0 0 0 0 0 0 0 0 0 0 0 0 0 0 0 0 127 0" result="hardAlpha"/>
            <feOffset dy="4"/>
            <feGaussianBlur stdDeviation="12.5"/>
            <feComposite in2="hardAlpha" operator="out"/>
            <feColorMatrix type="matrix" values="0 0 0 0 0.917647 0 0 0 0 0.364706 0 0 0 0 0.733333 0 0 0 0.25 0"/>
            <feBlend mode="normal" in2="BackgroundImageFix" result="effect1_dropShadow_1457_20710"/>
            <feBlend mode="normal" in="SourceGraphic" in2="effect1_dropShadow_1457_20710" result="shape"/>
        </filter>
        <clipPath id="clip0_1457_20710">
            <rect width="48" height="48" fill="white" transform="translate(36 32)"/>
        </clipPath>
    </defs>
</svg>