<svg xmlns="http://www.w3.org/2000/svg" viewBox="0 0 120 120" fill="none" id="advantages-2">
    <g filter="url(#filter0_d_1457_20725)">
        <rect x="25" y="21" width="70" height="70" rx="15" fill="#CF51CE"/>
    </g>
    <path d="M39.2 72.6H60.8V75C60.8 76.325 61.875 77.4 63.2 77.4H66.4C67.1 77.4 67.7625 77.0875 68.2125 76.5625C68.225 76.5625 68.2375 76.5625 68.25 76.55C68.8375 77.1 69.6 77.4 70.4 77.4H80C81.325 77.4 82.4 76.325 82.4 75C82.4 74.5875 82.2875 74.175 82.075 73.825C83.1625 73.15 83.525 71.7375 82.875 70.625C83.475 70.25 83.875 69.625 83.975 68.925C84.075 68.225 83.85 67.5125 83.375 67C84.0125 66.3 84.175 65.2875 83.7875 64.425C83.4 63.5625 82.5375 63 81.5875 63H79.1875V38.2C79.1875 36.4375 77.75 35 75.9875 35H39.2C37.4375 35 36 36.4375 36 38.2V69.4C36 71.1625 37.4375 72.6 39.2 72.6ZM66.4 75.8H63.2C62.7625 75.8 62.4 75.4375 62.4 75V67.8C62.4 67.3625 62.7625 67 63.2 67H66.4C66.8375 67 67.2 67.3625 67.2 67.8V75C67.2 75.4375 66.8375 75.8 66.4 75.8ZM82.4 65.4C82.4 65.8375 82.0375 66.2 81.6 66.2H79.2C78.7625 66.2 78.4 66.5625 78.4 67C78.4 67.4375 78.7625 67.8 79.2 67.8H81.6C82.0375 67.8 82.4 68.1625 82.4 68.6C82.4 69.0375 82.0375 69.4 81.6 69.4H79.2C78.7625 69.4 78.4 69.7625 78.4 70.2C78.4 70.6375 78.7625 71 79.2 71H80.8C81.2375 71 81.6 71.3625 81.6 71.8C81.6 72.2375 81.2375 72.6 80.8 72.6H79.2C78.7625 72.6 78.4 72.9625 78.4 73.4C78.4 73.8375 78.7625 74.2 79.2 74.2H80C80.4375 74.2 80.8 74.5625 80.8 75C80.8 75.4375 80.4375 75.8 80 75.8H70.4C69.5125 75.8 68.8 75.0875 68.8 74.2V67.4625C69.8 66.8375 70.55 65.875 70.925 64.7625C71.6375 62.625 72 60.3875 72 58.1375C72 58.025 72.075 57.9375 72.175 57.9C72.45 57.85 73.1625 57.725 73.8375 59.05C74.2125 59.8125 74.4 60.65 74.3875 61.5125V63.8C74.3875 64.2375 74.75 64.6 75.1875 64.6H81.5875C82.0375 64.6 82.4 64.9625 82.4 65.4ZM76 63V61.5125C76.0125 60.4125 75.7625 59.3125 75.275 58.325C74.4875 56.7875 73.2875 56.075 71.9 56.325C71.025 56.4875 70.4 57.25 70.4 58.1375C70.4 60.2125 70.0625 62.2875 69.4125 64.2625C69.1625 65 68.675 65.625 68.025 66.0625C67.5875 65.65 67 65.425 66.4 65.4125H63.2C61.875 65.4125 60.8 66.4875 60.8 67.8125V71.0125H39.2C38.3125 71.0125 37.6 70.3 37.6 69.4125V43H77.6V63H76ZM39.2 36.6H76C76.8875 36.6 77.6 37.3125 77.6 38.2V41.4H37.6V38.2C37.6 37.3125 38.3125 36.6 39.2 36.6Z" fill="white"/>
    <path fill-rule="evenodd" clip-rule="evenodd" d="M40.7992 38.999C40.7992 39.4365 40.4367 39.799 39.9992 39.799C39.5617 39.799 39.1992 39.4365 39.1992 38.999C39.1992 38.5615 39.5617 38.199 39.9992 38.199C40.4367 38.199 40.7992 38.5615 40.7992 38.999Z" fill="white"/>
    <path fill-rule="evenodd" clip-rule="evenodd" d="M44.0004 38.999C44.0004 39.4365 43.6379 39.799 43.2004 39.799C42.7629 39.799 42.4004 39.4365 42.4004 38.999C42.4004 38.5615 42.7629 38.199 43.2004 38.199C43.6379 38.199 44.0004 38.5615 44.0004 38.999Z" fill="white"/>
    <path fill-rule="evenodd" clip-rule="evenodd" d="M47.1996 38.999C47.1996 39.4365 46.8371 39.799 46.3996 39.799C45.9621 39.799 45.5996 39.4365 45.5996 38.999C45.5996 38.5615 45.9621 38.199 46.3996 38.199C46.8371 38.199 47.1996 38.5615 47.1996 38.999Z" fill="white"/>
    <path d="M42.4 59.8005H55.2C56.525 59.8005 57.6 58.7255 57.6 57.4005V47.8005C57.6 46.4755 56.525 45.4005 55.2 45.4005H42.4C41.075 45.4005 40 46.4755 40 47.8005V57.4005C40 58.7255 41.075 59.8005 42.4 59.8005ZM44.3625 58.2005L48.0625 52.3755L49.8375 54.6005L47.5625 58.2005H44.3625ZM55.2 58.2005H49.4625L53.675 51.5755L56 54.488V57.413C56 57.838 55.6375 58.2005 55.2 58.2005ZM41.6 47.8005C41.6 47.363 41.9625 47.0005 42.4 47.0005H55.2C55.6375 47.0005 56 47.363 56 47.8005V51.9255L54.225 49.7005C54.0625 49.5005 53.8125 49.388 53.5625 49.4005C53.3 49.413 53.075 49.5505 52.925 49.7755L50.7625 53.1755L48.625 50.5005C48.4625 50.3005 48.2125 50.188 47.9625 50.2005C47.7 50.213 47.475 50.3505 47.325 50.5755L42.475 58.2005H42.4C41.9625 58.2005 41.6 57.838 41.6 57.4005V47.8005Z" fill="white"/>
    <path fill-rule="evenodd" clip-rule="evenodd" d="M44.7992 49.3995C44.7992 49.837 44.4367 50.1995 43.9992 50.1995C43.5617 50.1995 43.1992 49.837 43.1992 49.3995C43.1992 48.962 43.5617 48.5995 43.9992 48.5995C44.4367 48.5995 44.7992 48.962 44.7992 49.3995Z" fill="white"/>
    <path fill-rule="evenodd" clip-rule="evenodd" d="M74.4 46.199H60.8C60.3625 46.199 60 46.5615 60 46.999C60 47.4365 60.3625 47.799 60.8 47.799H74.4C74.8375 47.799 75.2 47.4365 75.2 46.999C75.2 46.5615 74.8375 46.199 74.4 46.199Z" fill="white"/>
    <path fill-rule="evenodd" clip-rule="evenodd" d="M74.4 49.4005H60.8C60.3625 49.4005 60 49.763 60 50.2005C60 50.638 60.3625 51.0005 60.8 51.0005H74.4C74.8375 51.0005 75.2 50.638 75.2 50.2005C75.2 49.763 74.8375 49.4005 74.4 49.4005Z" fill="white"/>
    <path fill-rule="evenodd" clip-rule="evenodd" d="M74.4 52.5995H60.8C60.3625 52.5995 60 52.962 60 53.3995C60 53.837 60.3625 54.1995 60.8 54.1995H74.4C74.8375 54.1995 75.2 53.837 75.2 53.3995C75.2 52.962 74.8375 52.5995 74.4 52.5995Z" fill="white"/>
    <path fill-rule="evenodd" clip-rule="evenodd" d="M68 55.801H60.8C60.3625 55.801 60 56.1635 60 56.601C60 57.0385 60.3625 57.401 60.8 57.401H68C68.4375 57.401 68.8 57.0385 68.8 56.601C68.8 56.1635 68.4375 55.801 68 55.801Z" fill="white"/>
    <path fill-rule="evenodd" clip-rule="evenodd" d="M59.2 63H40.8C40.3625 63 40 63.3625 40 63.8C40 64.2375 40.3625 64.6 40.8 64.6H59.2C59.6375 64.6 60 64.2375 60 63.8C60 63.3625 59.6375 63 59.2 63Z" fill="white"/>
    <path fill-rule="evenodd" clip-rule="evenodd" d="M56.8 66.199H40.8C40.3625 66.199 40 66.5615 40 66.999C40 67.4365 40.3625 67.799 40.8 67.799H56.8C57.2375 67.799 57.6 67.4365 57.6 66.999C57.6 66.5615 57.2375 66.199 56.8 66.199Z" fill="white"/>
    <defs>
        <filter id="filter0_d_1457_20725" x="0" y="0" width="120" height="120" filterUnits="userSpaceOnUse" color-interpolation-filters="sRGB">
            <feFlood flood-opacity="0" result="BackgroundImageFix"/>
            <feColorMatrix in="SourceAlpha" type="matrix" values="0 0 0 0 0 0 0 0 0 0 0 0 0 0 0 0 0 0 127 0" result="hardAlpha"/>
            <feOffset dy="4"/>
            <feGaussianBlur stdDeviation="12.5"/>
            <feComposite in2="hardAlpha" operator="out"/>
            <feColorMatrix type="matrix" values="0 0 0 0 0.917647 0 0 0 0 0.364706 0 0 0 0 0.733333 0 0 0 0.25 0"/>
            <feBlend mode="normal" in2="BackgroundImageFix" result="effect1_dropShadow_1457_20725"/>
            <feBlend mode="normal" in="SourceGraphic" in2="effect1_dropShadow_1457_20725" result="shape"/>
        </filter>
    </defs>
</svg>