<svg xmlns="http://www.w3.org/2000/svg" viewBox="0 0 120 120" fill="none" id="advantages-4">
    <g filter="url(#filter0_d_1457_20747)">
        <rect x="25" y="21" width="70" height="70" rx="15" fill="#CF51CE"/>
    </g>
    <path d="M49.3441 79.1533C48.474 78.7666 48.0873 78.1866 48.184 77.2199C48.184 76.7365 48.184 76.1564 48.184 75.6731C47.9906 75.6731 47.7973 75.6731 47.604 75.6731C45.2838 75.6731 43.0603 75.6731 40.7401 75.6731C39.58 75.6731 39 75.093 39 73.933C39 73.4496 39 72.9662 39 72.4828C39 71.9995 39.29 71.7095 39.6767 71.7095C40.0634 71.7095 40.3534 71.9995 40.3534 72.4828C40.3534 72.9662 40.3534 73.4496 40.3534 73.933C40.3534 74.1263 40.4501 74.223 40.6435 74.223C43.157 74.223 45.5738 74.223 48.184 74.223C48.184 72.6762 48.184 71.2261 48.184 69.776C46.3472 68.6159 45.7672 67.8425 45.4771 65.7157C44.317 65.7157 43.157 65.619 42.0936 65.7157C41.1268 65.8124 40.4501 66.8758 40.3534 67.9392C40.3534 68.4226 40.3534 68.8093 40.3534 69.2926C40.3534 69.776 40.0634 70.066 39.6767 70.066C39.29 70.066 39 69.776 39 69.2926C39 68.8093 39 68.2292 39 67.7458C39.0967 66.5858 39.6767 65.619 40.6435 64.9423C40.7401 64.8456 40.8368 64.8456 40.9335 64.749C40.5468 63.4922 40.0634 62.3321 39.7734 61.172C38.2266 54.9849 39.1933 49.2812 42.7703 43.9641C42.9636 43.6741 43.0603 43.4808 42.8669 43.0941C42.3836 42.1273 42.5769 40.9673 43.3503 40.1939C44.1237 39.4205 45.1871 39.1305 46.2505 39.6138C46.4439 39.8072 46.6372 39.7105 46.8306 39.5172C47.9906 38.7438 49.0541 37.9704 50.2141 37.197C50.6975 36.907 51.0842 37.0036 51.2775 37.3903C51.4709 37.777 51.2775 38.067 50.8909 38.3571C49.8274 39.1305 48.764 39.8072 47.7006 40.5806C47.5073 40.6772 47.5073 40.8706 47.604 41.0639C47.9906 42.0307 47.7973 42.9974 47.1206 43.6741C46.4439 44.4475 45.5738 44.7375 44.5104 44.4475C44.2204 44.3508 44.1237 44.4475 43.9304 44.6409C41.9969 47.4444 40.8368 50.5379 40.5468 54.0182C40.1601 57.4984 40.7401 60.7853 42.0936 63.9756C42.1902 64.2656 42.3836 64.3623 42.7703 64.3623C44.1237 64.3623 45.4771 64.3623 46.7339 64.3623C46.8306 63.9756 46.7339 63.7822 46.5405 63.5889C45.3805 62.6221 44.6071 61.4621 44.4137 60.012C44.4137 59.7219 44.317 59.6253 44.027 59.5286C42.2869 59.0452 41.7069 56.9184 42.9636 55.565C43.0603 55.4683 43.157 55.1783 43.157 54.9849C43.157 53.5348 43.157 52.1814 43.157 50.7313C43.157 48.6045 44.5104 47.0577 46.4439 46.671C46.7339 46.5743 47.1206 46.5743 47.4106 46.5743C48.8607 46.5743 50.3108 46.5743 51.7609 46.5743C52.7277 46.5743 53.6944 46.8643 54.4678 47.5411C54.5645 47.6377 54.7578 47.6377 54.8545 47.6377C55.7245 47.251 56.5946 47.1544 57.5613 47.1544C58.0447 47.1544 58.4314 47.1544 58.9148 47.1544C59.3015 47.1544 59.5915 47.4444 59.6882 47.8311C59.6882 48.2178 59.3981 48.5078 58.9148 48.5078C58.238 48.5078 57.5613 48.5078 56.8846 48.5078C55.1445 48.5078 53.6944 49.8612 53.5977 51.6014C53.501 53.0515 53.5977 54.5016 53.5977 55.9517C53.5977 56.0483 53.5977 56.0483 53.5977 56.145C53.9844 56.2417 53.9844 56.0483 54.0811 55.7583C54.2744 54.6949 54.6611 53.7282 55.2412 52.8581C55.6279 52.3747 55.8212 52.2781 56.4012 52.4714C58.238 53.0515 59.9782 53.5348 61.9116 53.7282C62.395 53.7282 62.9751 53.7282 63.4584 53.6315C63.7484 53.5348 64.1351 53.3415 64.3285 53.1481C64.7152 52.7614 65.1985 52.7614 65.4886 53.2448C65.9719 54.0182 66.3586 54.8883 66.4553 55.7583C66.4553 55.9517 66.552 56.2417 66.842 56.145C66.842 56.0483 66.842 55.9517 66.842 55.855C66.842 54.8883 66.842 53.9215 66.842 52.9548C66.842 52.4714 66.7453 52.1814 66.1653 52.1814C65.7786 52.0847 65.5852 51.7947 65.5852 51.408C65.5852 50.6346 65.2952 50.0546 64.8119 49.4745C64.2318 48.7978 63.4584 48.5078 62.685 48.5078C62.395 48.5078 62.105 48.5078 61.9116 48.5078C61.525 48.5078 61.2349 48.2178 61.2349 47.8311C61.2349 47.4444 61.525 47.1544 61.9116 47.1544C62.9751 47.0577 64.0385 47.251 64.9085 47.7344C65.8753 46.7677 67.0353 46.4777 68.2921 46.5743C69.7422 46.5743 71.0956 46.5743 72.5457 46.5743C74.3825 46.5743 75.8326 47.7344 76.316 49.4745C76.316 49.5712 76.4127 49.7646 76.606 49.8612C77.1861 50.2479 77.4761 50.828 77.4761 51.5047C77.4761 52.5681 77.4761 53.7282 77.4761 54.7916C77.4761 54.9849 77.5728 55.2749 77.7661 55.3716C79.0229 56.7251 78.4428 58.7552 76.7027 59.3352C76.4127 59.4319 76.4127 59.5286 76.316 59.7219C76.026 61.172 75.3493 62.4288 74.1892 63.3955C73.9958 63.4922 73.9958 63.7822 73.8025 63.9756L73.8992 64.0722C74.5759 64.0722 75.1559 64.0722 75.8326 64.0722C76.5094 64.0722 77.2827 64.0722 77.9595 64.0722C78.3462 64.0722 78.4428 63.9756 78.6362 63.6856C79.9896 60.4953 80.473 57.2084 80.183 53.8248C79.8929 50.4413 78.7329 47.3477 76.8961 44.5442C76.7027 44.2542 76.5094 44.1575 76.2193 44.2542C75.2526 44.5442 74.3825 44.2542 73.7058 43.4808C73.0291 42.7074 72.8358 41.8373 73.2225 40.8706C73.1258 40.8706 73.0291 40.6772 72.8358 40.4839C70.0322 38.2604 66.842 36.8103 63.2651 36.2302C62.8784 36.1336 62.685 36.2302 62.4917 36.6169C61.5249 38.3571 59.0114 38.2604 58.0447 36.6169C57.8514 36.3269 57.658 36.2302 57.368 36.3269C56.2079 36.6169 55.0478 36.907 53.8877 37.197C53.6944 37.2937 53.3077 37.2937 53.1143 37.197C52.921 37.1003 52.7277 36.8103 52.8243 36.6169C52.921 36.4236 53.1143 36.0369 53.3077 36.0369C54.4678 35.6502 55.5312 35.4569 56.6913 35.1668C56.7879 35.1668 56.7879 35.1668 56.8846 35.1668C57.4647 35.1668 57.7547 34.9735 57.948 34.3935C58.4314 33.2334 59.3015 32.75 60.4615 32.75C61.525 32.8467 62.395 33.33 62.7817 34.3935C62.9751 34.7801 63.1684 34.8768 63.5551 34.9735C67.422 35.5535 70.8056 37.0036 73.8025 39.5172C74.0925 39.7105 74.2859 39.8072 74.6726 39.6138C75.6393 39.2271 76.7994 39.5172 77.4761 40.2905C78.1528 41.0639 78.3462 42.224 77.8628 43.1907C77.7661 43.3841 77.6694 43.5774 77.8628 43.8675C82.2131 50.3446 82.7931 57.2084 79.8929 64.4589C79.8929 64.5556 79.7963 64.6523 79.7963 64.749C79.9896 64.8456 80.0863 64.9423 80.2796 65.1357C81.2464 65.909 81.7297 66.8758 81.7297 68.1325C81.7297 70.066 81.7297 72.0962 81.7297 74.0296C81.7297 75.1897 81.1497 75.7698 79.9896 75.7698C77.6694 75.7698 75.4459 75.7698 73.1258 75.7698C72.9324 75.7698 72.7391 75.7698 72.5457 75.7698C72.5457 76.3498 72.5457 76.8332 72.5457 77.3165C72.6424 78.2833 72.2557 78.8633 71.3857 79.25C63.9418 79.1533 56.6913 79.1533 49.3441 79.1533ZM65.1985 68.1325C64.9085 71.2261 62.5884 72.8695 60.3649 72.8695C59.2048 72.8695 58.238 72.5795 57.368 71.8061C56.1112 70.8394 55.5312 69.5826 55.4345 68.0359C54.3711 68.0359 53.4044 68.0359 52.341 68.0359C50.6008 68.0359 49.5374 69.0993 49.5374 70.8394C49.5374 72.9662 49.5374 75.093 49.5374 77.2199C49.5374 77.6066 49.6341 77.7999 50.1175 77.7999C54.0811 77.7999 58.0447 77.7999 62.0083 77.7999C64.9085 77.7999 67.8087 77.7999 70.7089 77.7999C70.9023 77.7999 71.1923 77.8966 71.1923 77.5099C71.1923 75.1897 71.1923 72.9662 71.1923 70.6461C71.1923 69.3893 70.1289 68.2292 68.9688 68.2292C67.6154 68.0359 66.4553 68.1325 65.1985 68.1325ZM64.9085 54.8883C61.815 55.9517 59.1081 54.7916 56.3046 54.1149C56.2079 54.2115 56.1112 54.3082 56.1112 54.5016C55.6279 55.1783 55.4345 55.9517 55.4345 56.7251C55.4345 58.3685 55.3378 60.012 55.5312 61.5587C55.8212 64.0722 58.1414 65.909 60.6549 65.7157C63.1684 65.5224 65.1985 63.4922 65.1985 60.9787C65.1985 59.5286 65.1985 58.0785 65.1985 56.6284C65.1985 56.0483 65.0052 55.4683 64.9085 54.8883ZM46.0572 53.4382C45.9605 54.0182 45.7672 54.5016 45.6705 54.9849C45.5738 56.435 45.5738 57.9818 45.6705 59.4319C45.8638 62.0421 48.184 63.7822 50.6975 63.3955C51.9543 63.2022 53.0177 62.4288 53.6944 61.3654C53.5977 61.3654 53.501 61.2687 53.501 61.2687C51.8576 60.592 51.2775 59.0452 52.1476 57.4984C52.1476 57.4018 52.2443 57.4018 52.2443 57.3051C52.2443 56.3384 52.2443 55.4683 52.2443 54.5016C50.1175 54.5016 48.184 54.0182 46.0572 53.4382ZM80.183 74.3196C80.183 72.0962 80.183 69.9693 80.183 67.8425C80.183 66.8758 79.4096 65.909 78.4428 65.8124C77.2827 65.7157 76.2193 65.8124 75.0593 65.8124C74.7692 67.9392 74.1892 68.8093 72.3524 69.8727C72.3524 71.4194 72.3524 72.8695 72.3524 74.3196C75.0593 74.3196 77.5728 74.3196 80.183 74.3196ZM66.9387 61.2687C66.9387 61.3654 67.0353 61.4621 67.0353 61.4621C68.0021 62.9122 69.9356 63.6856 71.579 63.2989C73.4158 62.8155 74.7692 61.3654 74.8659 59.5286C74.9626 58.1752 74.9626 56.7251 74.8659 55.3716C74.8659 54.8883 74.6726 54.3082 74.6726 53.8248C72.4491 54.8883 70.4189 54.2115 68.2921 53.8248C68.2921 54.7916 68.2921 55.7583 68.2921 56.7251C68.2921 57.0151 68.3888 57.2084 68.4854 57.4018C69.1622 58.7552 68.6788 60.3987 67.2287 60.9787C67.132 61.172 67.0353 61.2687 66.9387 61.2687ZM66.0686 48.7011C66.3586 49.3779 66.6486 50.0546 66.9387 50.7313C67.0353 51.0213 67.132 51.118 67.3254 51.3113C67.6154 51.6014 67.9054 51.8914 68.1954 52.2781C68.2921 52.3747 68.4854 52.5681 68.5821 52.6648C69.2588 52.8581 69.8389 53.0515 70.5156 53.0515C71.4823 53.1481 72.3524 53.1481 73.3191 53.0515C73.6091 53.0515 73.8025 52.6648 73.9958 52.4714C74.1892 52.2781 74.3825 51.988 74.5759 51.988C74.7692 51.988 75.0593 52.1814 75.2526 52.3747C75.5426 52.7614 75.736 53.1481 75.9293 53.6315C75.9293 52.8581 75.9293 52.1814 75.9293 51.6014C75.9293 51.5047 75.736 51.3113 75.6393 51.2147C75.1559 51.118 74.9626 50.828 74.9626 50.3446C74.8659 49.0878 73.8992 48.1211 72.6424 48.1211C70.999 48.1211 69.3555 48.1211 67.7121 48.1211C67.0353 48.0244 66.4553 48.3145 66.0686 48.7011ZM44.6071 53.4382C44.8004 53.1481 44.9938 52.8581 45.0904 52.5681C45.4771 51.988 45.6705 51.8914 46.3472 52.0847C47.3139 52.3747 48.2807 52.5681 49.2474 52.8581C50.2141 53.0515 51.2775 53.2448 52.341 53.0515C52.2443 51.408 52.4376 49.8612 53.5977 48.7011C53.1143 48.3145 52.631 48.1211 52.0509 48.1211C50.4075 48.1211 48.8607 48.1211 47.2173 48.1211C45.7672 48.1211 44.7037 49.0878 44.6071 50.5379C44.5104 51.408 44.6071 52.4714 44.6071 53.4382ZM62.2983 66.7791C60.7516 67.1658 60.2682 67.2625 58.238 66.7791C58.5281 67.9392 57.8514 68.2292 56.8846 68.0359C56.9813 69.9693 58.5281 71.5161 60.4615 71.5161C62.395 71.4194 63.9418 69.8727 63.8451 68.1325C63.4584 68.0359 62.9751 68.0359 62.7817 67.8425C62.395 67.6492 62.395 67.1658 62.2983 66.7791ZM48.6674 68.5192C49.1507 68.0359 49.6341 67.6492 50.1175 67.2625C50.8909 66.7791 51.6642 66.6824 52.631 66.6824C52.8243 66.6824 53.0177 66.5858 53.0177 66.4891C53.1143 66.2957 53.1143 66.0057 53.211 65.619C52.341 65.7157 51.7609 65.5224 51.8576 64.4589C50.6008 64.8456 49.4407 64.8456 48.2807 64.5556C48.184 64.9423 48.0873 65.329 47.894 65.5224C47.7006 65.7157 47.2173 65.7157 46.9272 65.8124C46.8306 66.8758 47.604 68.0359 48.6674 68.5192ZM68.7755 64.5556C68.5821 65.5224 68.5821 65.5224 67.5187 65.7157C67.422 66.5858 67.5187 66.6824 68.3888 66.6824C69.4522 66.6824 70.4189 66.9725 71.1923 67.7458C71.4823 67.9392 71.6757 68.2292 71.9657 68.5192C73.1258 68.0359 73.9958 66.6824 73.8025 65.7157C72.7391 65.619 72.6424 65.7157 72.5457 64.5556C71.1923 64.9423 70.0322 64.8456 68.7755 64.5556ZM45.1871 43.2874C45.8638 43.2874 46.4439 42.7074 46.4439 42.0307C46.4439 41.354 45.8638 40.7739 45.2838 40.7739C44.6071 40.7739 44.027 41.2573 44.027 41.934C43.9304 42.7074 44.5104 43.2874 45.1871 43.2874ZM60.2682 36.5203C60.9449 36.5203 61.5249 35.9402 61.5249 35.2635C61.5249 34.5868 60.9449 34.1034 60.2682 34.0068C59.5915 34.0068 59.0114 34.5868 59.0114 35.2635C59.1081 36.0369 59.5915 36.5203 60.2682 36.5203ZM75.4459 43.2874C76.1227 43.2874 76.7027 42.7074 76.7027 42.0307C76.7027 41.354 76.2193 40.8706 75.5426 40.7739C74.8659 40.7739 74.2859 41.2573 74.2859 41.934C74.1892 42.7074 74.7692 43.2874 75.4459 43.2874ZM56.7879 66.6824C56.8846 66.1024 56.6913 65.7157 56.3046 65.7157C55.7245 65.619 55.1445 65.7157 54.4678 65.7157C54.4678 66.1024 54.3711 66.3924 54.3711 66.6824C55.2412 66.6824 56.0146 66.6824 56.7879 66.6824ZM66.0686 65.7157C65.5852 65.7157 65.1019 65.7157 64.6185 65.7157C63.9418 65.7157 63.6518 66.0057 63.8451 66.6824C64.6185 66.6824 65.3919 66.6824 66.262 66.6824C66.1653 66.2957 66.1653 66.0057 66.0686 65.7157ZM67.422 64.2656C67.422 63.3955 66.552 63.2989 66.262 62.7188C65.9719 63.2989 65.7786 63.6856 65.4886 64.2656C66.1653 64.2656 66.7453 64.2656 67.422 64.2656ZM55.0478 64.2656C54.7578 63.7822 54.5645 63.2989 54.2744 62.8155C53.9844 63.1055 53.7911 63.2989 53.501 63.4922C53.211 63.6856 52.921 63.8789 53.1143 64.2656C53.8877 64.2656 54.4678 64.2656 55.0478 64.2656ZM53.9844 59.9153C53.9844 59.1419 53.9844 58.4652 53.9844 57.6918C53.4044 57.7885 53.1143 58.1752 53.1143 58.6585C53.1143 59.2386 53.4044 59.7219 53.9844 59.9153ZM66.552 57.6918C66.552 58.4652 66.552 59.1419 66.552 59.9153C67.132 59.8186 67.422 59.3352 67.422 58.8519C67.5187 58.2718 67.132 57.8851 66.552 57.6918ZM44.317 56.3384C43.8337 56.5317 43.6403 56.9184 43.6403 57.3051C43.6403 57.6918 43.8337 57.9818 44.317 58.1752C44.317 57.5951 44.317 57.0151 44.317 56.3384ZM76.316 58.1752C76.7994 57.9818 76.9927 57.6918 76.9927 57.2084C76.9927 56.8217 76.7994 56.5317 76.316 56.3384C76.316 57.0151 76.316 57.5951 76.316 58.1752Z" fill="white"/>
    <defs>
        <filter id="filter0_d_1457_20747" x="0" y="0" width="120" height="120" filterUnits="userSpaceOnUse" color-interpolation-filters="sRGB">
            <feFlood flood-opacity="0" result="BackgroundImageFix"/>
            <feColorMatrix in="SourceAlpha" type="matrix" values="0 0 0 0 0 0 0 0 0 0 0 0 0 0 0 0 0 0 127 0" result="hardAlpha"/>
            <feOffset dy="4"/>
            <feGaussianBlur stdDeviation="12.5"/>
            <feComposite in2="hardAlpha" operator="out"/>
            <feColorMatrix type="matrix" values="0 0 0 0 0.917647 0 0 0 0 0.364706 0 0 0 0 0.733333 0 0 0 0.25 0"/>
            <feBlend mode="normal" in2="BackgroundImageFix" result="effect1_dropShadow_1457_20747"/>
            <feBlend mode="normal" in="SourceGraphic" in2="effect1_dropShadow_1457_20747" result="shape"/>
        </filter>
    </defs>
</svg>