<svg width="474" height="474" fill="none" xmlns="http://www.w3.org/2000/svg"><path opacity=".5" d="M360.77 28.49c15.82 22.88-2.73 59.99 20.74 77.2 22.85 16.75 50.92-10.71 72.46 3.71 31.94 21.4 26.11 119.29-20.6 180.11-14.04 18.29-25.78 25.41-30.98 46.1-11.16 44.42 28.07 70.84 20.6 92.81-16.8 49.47-275.3 90.98-379.03-57.69-48.45-69.43-55.7-169.7-12.41-245.84 78.2-137.6 293.72-147.75 329.22-96.4Z" fill="url(#a)" fill-opacity=".5"/><path d="m0 416.01 462.74-3.44v10.19a5.6 5.6 0 0 1-4.75 5.53l-130.85 20.06c-1.55.24-3.13.3-4.7.2L5.02 425.66a5.42 5.42 0 0 1-5.02-5.4V416Z" fill="url(#b)"/><path d="m167.93 399.5 290.02 18.64c5.2.32 9.42-3.21 9.42-7.92v-188.5c0-4.7-4.23-8.52-9.42-8.52H167.94a7.72 7.72 0 0 0-7.74 7.7v170.4a8.35 8.35 0 0 0 7.74 8.2Z" fill="url(#c)"/><path d="m163.3 399.5 290.03 18.64c5.2.32 9.41-3.21 9.41-7.92v-188.5c0-4.7-4.22-8.52-9.4-8.52H163.3a7.72 7.72 0 0 0-7.73 7.7v170.4a8.35 8.35 0 0 0 7.73 8.2Z" fill="url(#d)"/><path d="m172.34 387.49 270.12 16.19c4.23.25 7.66-2.66 7.66-6.5V232.14c0-3.84-3.43-6.97-7.66-6.98l-270.12-1.02a6.33 6.33 0 0 0-6.38 6.31v150.32c0 3.5 2.85 6.5 6.38 6.72Z" fill="url(#e)"/><path d="M298.07 218.35c0 1.76 1.5 3.18 3.34 3.19a3.26 3.26 0 0 0 3.34-3.17c0-1.76-1.5-3.18-3.34-3.18a3.25 3.25 0 0 0-3.34 3.16Z" fill="white"/><g style="mix-blend-mode:soft-light" opacity=".48"><path d="M233.18 347.8c22.36-10.94 39.94 2.92 56.9-10.75 10.3-8.29 5.24-14.47 17.9-26.86 14.02-13.72 23.14-9.1 37.23-21.46 17.82-15.61 8.9-27.76 24.25-38.97 18.62-13.6 38.7-1.01 56.41-14.06 7.64-5.63 11.84-13.8 14.03-22.5h17.34c3.03 0 5.5 2.24 5.5 5v195.4c0 2.76-2.47 4.84-5.5 4.64l-295.6-19.08a4.84 4.84 0 0 1-3.55-1.98c21.63-.71 34.93-7.3 43.43-14.13 16.62-13.32 13.73-26.48 31.66-35.25Z" fill="white"/></g><path d="m151.74 398.66 311 19.61-135.6 20.79c-1.55.24-3.13.3-4.7.19L0 416l146.79-17.22c1.64-.2 3.3-.24 4.95-.13Z" fill="url(#f)"/><path style="mix-blend-mode:multiply" opacity=".3" d="M417.36 418.76 158.45 402.2l-80.14 9.33L335 429.23l82.36-10.47Z" fill="url(#g)"/><path d="M31.03 142.41c-8.48.72-16-6.15-16.77-15.34-.77-9.19 5.48-17.21 13.97-17.93.44-.04.88-.04 1.3-.04a96.2 96.2 0 0 1 2.21-13.9c-.4-.17-.8-.34-1.2-.55C22.81 90.68 19.43 80.71 23 72.4c3.58-8.31 12.75-11.83 20.48-7.86.4.21.8.44 1.17.68a88.5 88.5 0 0 1 8.37-10.74c-.28-.37-.56-.74-.82-1.14-4.91-7.6-3.25-17.99 3.71-23.2 6.97-5.21 16.6-3.28 21.51 4.32.25.39.47.8.7 1.2a78.25 78.25 0 0 1 12.28-4.7c-.08-.46-.15-.93-.19-1.4-.77-9.2-2.45-19.57 6.05-20.15 19.66-1.34 23.91 8.37 24.7 17.56.03.48.04.95.05 1.42 4.36.5 8.67 1.35 12.9 2.57.14-.43.3-.86.48-1.29 3.58-8.32 2.93-13.86 11.05-10.74 17.71 6.79 20.54 16.82 16.97 25.14-.2.43-.4.84-.62 1.25a88.43 88.43 0 0 1 10.05 9.2c.34-.3.68-.6 1.04-.87 6.96-5.22 16.59-3.28 21.5 4.32 4.92 7.6 3.26 17.99-3.7 23.2-.36.27-.73.5-1.1.73a96.4 96.4 0 0 1 4.5 13.35c.43-.08.86-.15 1.31-.18 8.48-.72 15.99 6.15 16.77 15.34.78 9.19-5.48 17.21-13.97 17.93-.44.04-.87.04-1.3.04a96.34 96.34 0 0 1-2.21 13.9c.4.17.8.34 1.2.55 7.74 3.97 11.11 13.94 7.54 22.25-3.57 8.32-12.74 11.83-20.48 7.86-.4-.21-.79-.44-1.17-.68A86.7 86.7 0 0 1 173.4 183c.28.37.56.74.82 1.14 4.91 7.6 3.25 17.99-3.71 23.2-6.97 5.22-22.04 2.83-26.95-4.77-.26-.39 4.97-.34 4.75-.74a78.2 78.2 0 0 1-12.28 4.7c.07.46.14.92.18 1.4.77 9.19-5.48 17.21-13.97 17.93-8.48.71-16-6.16-16.77-15.34a17 17 0 0 1-.05-1.42 78.55 78.55 0 0 1-12.9-2.58c-.14.44-.3.87-.48 1.3-3.58 8.31-12.75 11.83-20.48 7.85-7.74-3.97-11.12-13.93-7.54-22.25.18-.43.4-.85.61-1.25a88.33 88.33 0 0 1-10.05-9.2c-.32.3-.67.6-1.04.87-6.96 5.22-16.59 3.28-21.5-4.32-4.92-7.6-3.25-17.99 3.7-23.2.36-.27.73-.5 1.1-.73a96.15 96.15 0 0 1-4.5-13.35c-.44.07-.87.14-1.3.17Zm87.27 36.73c30.82-2.6 53.52-31.74 50.71-65.1-2.81-33.36-30.08-58.3-60.9-55.7-30.8 2.6-53.51 31.74-50.7 65.1 2.82 33.35 30.07 58.3 60.89 55.7Z" fill="#BFC6D1"/><path d="M30.55 94.65C22.8 90.67 19.44 80.71 23 72.4c3.57-8.32 12.74-11.83 20.48-7.86.4.2.79.44 1.17.68 2.5-3.79 5.3-7.38 8.36-10.74a16.3 16.3 0 0 1-.81-1.14c-4.92-7.6-8.69-22.67-1.23-27.15 14.16-8.48 21.53.67 26.44 8.27.26.39.48.79.7 1.2a78.16 78.16 0 0 1 12.28-4.7c-.07-.47-.14-.93-.18-1.4-.43-5 1.25-9.66 4.21-12.98a2591.4 2591.4 0 0 1 5.32 43.15c-26.45 6.65-44.89 33.44-42.34 63.7 2.16 25.64 18.77 46.3 40.33 53.3-.05 2.8-.12 5.62-.1 8.42.07 7.62.57 15.25 1.07 22.88-2.1-.43-4.16-.93-6.2-1.52-.14.43-.3.87-.49 1.3-3.57 8.31-11.55 13.37-25.79 6.68-7.87-3.7-5.8-12.77-2.22-21.09.18-.43.4-.84.6-1.25a88.35 88.35 0 0 1-10.04-9.2c-.33.3-.67.6-1.04.87-6.96 5.22-22.58 2.28-27.5-5.31-4.91-7.6 2.74-17 9.7-22.2.36-.28.73-.51 1.1-.74a96.18 96.18 0 0 1-4.5-13.35c-.43.08-.86.15-1.3.18-8.48.72-16-6.15-16.77-15.34-.77-9.19 5.48-17.22 13.97-17.93.43-.04.87-.04 1.3-.04.4-4.68 1.14-9.33 2.21-13.91-.4-.15-.8-.32-1.2-.53Z" fill="#BFC6D1"/><path d="M23.12 140.2c-8.49.72-16-6.15-16.77-15.34-.78-9.19 5.48-17.22 13.96-17.94.44-.04.88-.04 1.3-.04.4-4.68 1.14-9.33 2.22-13.9-.4-.17-.8-.35-1.2-.55-7.74-3.97-11.12-13.94-7.54-22.25 3.57-8.31 12.74-11.83 20.48-7.86.4.21.79.44 1.17.68a86.7 86.7 0 0 1 8.37-10.74 15.7 15.7 0 0 1-.82-1.14c-4.91-7.6-3.25-17.99 3.71-23.2 6.96-5.21 16.6-3.28 21.5 4.32.26.39.48.79.7 1.2a78.15 78.15 0 0 1 12.28-4.7c-.07-.47-.14-.93-.18-1.4-.78-9.2 5.48-17.22 13.96-17.94 8.49-.71 16 6.16 16.77 15.34.04.48.05.95.06 1.42 4.36.5 8.67 1.36 12.89 2.58.15-.44.3-.87.49-1.3 3.57-8.31 12.74-11.83 20.48-7.85 7.74 3.97 11.11 13.93 7.54 22.25-.19.43-.4.85-.61 1.25a88.37 88.37 0 0 1 10.04 9.2c.34-.3.68-.6 1.04-.87 6.97-5.22 16.6-3.28 21.5 4.32 4.92 7.6 3.26 17.99-3.7 23.2-.36.27-.73.5-1.1.73a95.95 95.95 0 0 1 4.51 13.35c.43-.08.86-.14 1.3-.18 8.49-.72 16 6.15 16.77 15.34.78 9.19-5.48 17.22-13.96 17.94-.44.04-.88.04-1.3.04a96.23 96.23 0 0 1-2.22 13.91c.4.16.8.34 1.2.54 7.74 3.97 11.12 13.94 7.54 22.25-3.57 8.32-12.74 11.83-20.48 7.86-.4-.21-.78-.44-1.17-.68a87.59 87.59 0 0 1-8.36 10.74c.28.37.55.74.81 1.14 4.91 7.6 3.25 17.99-3.71 23.2-6.96 5.22-16.6 3.28-21.5-4.32-.26-.39-.48-.8-.7-1.2a78.36 78.36 0 0 1-12.28 4.7c.07.47.14.93.18 1.4.78 9.2-5.48 17.22-13.96 17.94-8.49.71-15.99-6.16-16.77-15.34a17 17 0 0 1-.05-1.42 78.23 78.23 0 0 1-12.9-2.58c-.15.44-.3.87-.49 1.3-3.57 8.31-12.74 11.83-20.48 7.85-7.74-3.97-11.11-13.94-7.54-22.25.19-.43.4-.85.61-1.25a88.18 88.18 0 0 1-10.04-9.2c-.33.3-.68.6-1.04.87-6.97 5.22-16.6 3.28-21.5-4.32-4.92-7.6-3.26-17.99 3.7-23.2.36-.27.73-.5 1.1-.73a95.97 95.97 0 0 1-4.51-13.35c-.44.07-.86.14-1.3.18Zm87.26 36.73c30.82-2.6 53.52-31.74 50.71-65.1-2.8-33.36-30.07-58.3-60.88-55.7-30.82 2.6-53.53 31.74-50.72 65.1 2.81 33.37 30.06 58.3 60.9 55.7Z" fill="#D8DEE8"/><path d="M174.18 105.66v78.6c0 2.61-1.78 4.69-3.98 4.63l-129.9-3.18c-2-.05-3.6-2.1-3.6-4.59V106.3l137.48-.63Z" fill="white"/><path d="m40.3 96.76 129.9-1.05c2.2-.02 3.98 2.08 3.98 4.7v8.05l-137.49.5v-7.67c0-2.49 1.62-4.52 3.62-4.53Z" fill="url(#h)"/><path d="m141.74 147.16-7.26-30.43c-10.95 4.24-18.83 16.52-18.89 31.03l26.15-.6Z" fill="url(#i)"/><path d="M122.32 149.74c.4 6.92 3.17 13.1 7.33 17.36l11.39-17.8-18.72.44Z" fill="#F4F7FA"/><path d="M143.37 146.13c4.4-5.01 9.73-11.09 13.98-15.96-3.77-4.29-8.85-6.92-14.42-6.93-1.66 0-3.3.23-4.9.69l5.34 22.2Z" fill="#F4F7FA"/><path d="m144.28 148.05 16.04 14.28a28.22 28.22 0 0 0 3.57-13.93 28 28 0 0 0-5.29-16.67l-3.91 4.47-10.4 11.85Z" fill="#F4F7FA"/><path d="m143.82 150.3.31 22.8c6.1-.3 11.51-3.75 15.13-9.05l-15.44-13.76Z" fill="#F4F7FA"/><path d="m142.05 151.24-11 17.18a18.78 18.78 0 0 0 11.3 4.69l-.3-21.87Z" fill="#F4F7FA"/><path d="m46.09 130.63 65.82.28v-7.67l-65.82-.1v7.5Z" fill="#D8DEE8"/><path d="m46.09 144.19 65.82.61v-7.67l-65.82-.43v7.49Z" fill="#D8DEE8"/><path d="m46.09 157.75 65.82.93v-7.67l-65.82-.75v7.49Z" fill="#D8DEE8"/><path d="m46.09 171.3 65.82 1.27v-7.67l-65.81-1.1v7.5Z" fill="#D8DEE8"/><path d="M42 103.03c0 1.16.79 2.1 1.76 2.09.97 0 1.77-.95 1.77-2.1 0-1.16-.8-2.1-1.77-2.1-.97.01-1.76.96-1.76 2.11Z" fill="white"/><path d="M310.78 276.14v95.28c0 3.16-2.2 5.6-4.93 5.43l-159.83-9.59c-2.45-.14-4.43-2.69-4.43-5.68v-90.12l169.19 4.68Z" fill="white"/><path d="m146.02 260.13 159.83 3.8c2.72.07 4.93 2.68 4.93 5.85v9.76l-169.19-4.86v-9.23c0-3 1.98-5.38 4.43-5.32Z" fill="url(#j)"/><path d="m158.8 351.68 132.98 7.24v-64.96L158.8 289.5v62.18Z" fill="#F4F7FA"/><path d="m158.8 351.68 132.97 7.24v-41.76c-4.35 28.18-8.98 34.24-12.47 34.36-4.92.17-7.56-11.4-14.99-12.07-7.36-.66-9.85 10.32-15.36 9.66-10.48-1.26-13.32-42.45-21.81-43.06-6.74-.49-11.3 25.07-17.23 23.78-4.33-.94-5.38-15.36-8.66-15.35-2.97.01-3.1 11.86-7.01 12.79-5.74 1.35-11.3-22.74-19.2-23.2-4.37-.27-9.81 6.69-16.26 30.86l.01 16.75Z" fill="url(#k)"/><path d="M147 267.48c0 1.4.98 2.57 2.18 2.6 1.2.03 2.18-1.08 2.18-2.48s-.98-2.57-2.18-2.6c-1.2-.03-2.18 1.08-2.18 2.48Z" fill="white"/><path d="M444.23 100.66v136.6c0 4.54-3.3 8.16-7.36 8.1l-233.45-4c-3.49-.06-6.31-3.5-6.31-7.7V107.44l247.12-6.77Z" fill="white"/><path d="m203.42 91.2 233.45-7.64c4.06-.13 7.36 3.44 7.36 7.97v14l-247.12 6.4V99c0-4.19 2.83-7.68 6.31-7.79Z" fill="url(#l)"/><path d="M204 101.73c0 2 1.46 3.59 3.25 3.54 1.8-.04 3.26-1.72 3.26-3.73 0-2-1.45-3.59-3.26-3.54-1.8.05-3.25 1.73-3.25 3.73Z" fill="white"/><path d="m393.76 226.94 18.39.22V125.64l-18.4.36v100.94Z" fill="#F4F7FA"/><path d="m393.76 226.94 18.39.22v-48.2l-18.4.06v47.92Z" fill="url(#m)"/><path d="m368.52 226.65 18.1.21V126.14l-18.1.36v100.15Z" fill="#F4F7FA"/><path d="m368.52 226.65 18.1.21v-23.9l-18.1-.08v23.77Z" fill="url(#n)"/><path d="m343.67 226.36 17.82.21v-99.92l-17.82.35v99.36Z" fill="#F4F7FA"/><path d="m343.67 226.36 17.82.21v-12.45l-17.82-.14v12.38Z" fill="url(#o)"/><path d="m319.2 226.08 17.55.2v-99.14l-17.55.35v98.6Z" fill="#F4F7FA"/><path d="m319.2 226.08 17.55.2v-77.66l-17.55.23v77.23Z" fill="url(#p)"/><path d="m295.12 225.8 17.27.2v-98.38l-17.27.35v97.83Z" fill="#F4F7FA"/><path d="m295.12 225.8 17.27.2v-68.3l-17.27.17v67.93Z" fill="url(#q)"/><path d="m271.4 225.53 17.01.2V128.1l-17 .34v97.09Z" fill="#F4F7FA"/><path d="m271.4 225.53 17.01.2V142.3l-17 .26v82.97Z" fill="url(#r)"/><path d="m248.04 225.26 16.76.2v-96.89l-16.76.34v96.35Z" fill="#F4F7FA"/><path d="m248.04 225.26 16.76.2v-59.52l-16.76.14v59.18Z" fill="url(#s)"/><path d="m225.04 225 16.5.18v-96.14l-16.5.33v95.62Z" fill="#F4F7FA"/><path d="m225.04 225 16.5.18V191.8h-16.5V225Z" fill="url(#t)"/><path d="M453.3 287.14v79.3c0 2.63-1.73 4.67-3.85 4.55l-126-7.04c-1.94-.1-3.51-2.23-3.51-4.75v-75.69l133.36 3.63Z" fill="white"/><path d="m323.46 273.99 125.99 2.99c2.12.05 3.85 2.22 3.85 4.86v8.12l-133.36-3.75v-7.76c0-2.51 1.57-4.51 3.52-4.46Z" fill="url(#u)"/><path d="M326 280.07c0 1.17.76 2.13 1.7 2.16.94.02 1.71-.9 1.71-2.07s-.76-2.14-1.7-2.16c-.95-.02-1.71.91-1.71 2.07Z" fill="white"/><path d="M433.02 325.13c-1.17-2.79-3.36-4.83-5.94-5.3l-.18-13.56c7.33.6 13.6 6.46 16.4 14.54l-10.28 4.31Z" fill="url(#v)"/><path d="M425.02 319.8c-3.48.5-6.2 3.95-6.52 8.36l-10.75.1c.13-11.98 7.6-21.5 17.09-22.01l.18 13.54Z" fill="#D8DEE8"/><path d="M418.59 330.72c.63 4.55 3.78 8.12 7.59 8.3 1.1.04 2.18-.2 3.15-.7l5.73 11.82a15.13 15.13 0 0 1-8.87 2.37c-9.61-.48-17.46-10-18.35-21.69l10.75-.1Z" fill="#D8DEE8"/><path d="m436.83 348.87-5.74-11.83a10.25 10.25 0 0 0 2.84-7.34c0-.71-.07-1.43-.2-2.12l10.29-4.31c.55 2.25.83 4.57.83 6.9 0 7.9-3.18 14.73-8.02 18.7Z" fill="#D8DEE8"/><path d="M393 323.5c-1.14-2.74-3.27-4.75-5.77-5.21l-.18-13.38c7.13.6 13.21 6.36 15.94 14.33L393 323.5Z" fill="#D8DEE8"/><path d="M385.22 318.25c-3.38.51-6.02 3.91-6.34 8.26l-10.46.1c.14-11.82 7.4-21.2 16.63-21.72l.17 13.36Z" fill="url(#w)"/><path d="M378.96 329.04c.62 4.48 3.69 8 7.39 8.17a6.02 6.02 0 0 0 3.06-.69l5.58 11.66a14.57 14.57 0 0 1-8.65 2.34c-9.34-.46-16.98-9.84-17.84-21.38l10.46-.1Z" fill="#D8DEE8"/><path d="m396.7 346.93-5.58-11.67a10.16 10.16 0 0 0 2.77-7.24c0-.7-.06-1.4-.18-2.1l9.99-4.26c.53 2.23.8 4.51.8 6.8 0 7.8-3.08 14.55-7.8 18.47Z" fill="#D8DEE8"/><path d="M354.07 321.93c-1.1-2.7-3.18-4.69-5.62-5.14l-.16-13.2c6.93.58 12.86 6.28 15.5 14.13l-9.72 4.21Z" fill="#D8DEE8"/><path d="M346.5 316.75c-3.3.5-5.86 3.87-6.17 8.16l-10.18.1c.13-11.65 7.2-20.92 16.18-21.43l.17 13.17Z" fill="#D8DEE8"/><path d="M340.4 327.4c.6 4.42 3.6 7.89 7.19 8.05a5.77 5.77 0 0 0 2.98-.68l5.43 11.5a14.05 14.05 0 0 1-8.42 2.32c-9.1-.46-16.52-9.7-17.36-21.1l10.19-.1Z" fill="#D8DEE8"/><path d="m357.68 345.03-5.44-11.5a10.19 10.19 0 0 0 2.7-7.15c0-.7-.07-1.39-.19-2.07l9.73-4.2c.52 2.2.78 4.44.78 6.7 0 7.7-3 14.35-7.58 18.22Z" fill="url(#x)"/><defs><linearGradient id="a" x1="2.96" y1="45.23" x2="577.64" y2="102.2" gradientUnits="userSpaceOnUse"><stop stop-color="#7C4EAB"/><stop offset="1" stop-color="#DD51D4"/></linearGradient><linearGradient id="b" x1="267.14" y1="433.24" x2="299.6" y2="446.87" gradientUnits="userSpaceOnUse"><stop stop-color="#40447E"/><stop offset="1" stop-color="#3C3B6B"/></linearGradient><linearGradient id="c" x1="-405006" y1="459278" x2="-353502" y2="491697" gradientUnits="userSpaceOnUse"><stop stop-color="#40447E"/><stop offset="1" stop-color="#3C3B6B"/></linearGradient><linearGradient id="d" x1="-135273" y1="467785" x2="-713712" y2="467785" gradientUnits="userSpaceOnUse"><stop stop-color="#40447E"/><stop offset="1" stop-color="#3C3B6B"/></linearGradient><linearGradient id="e" x1="165.96" y1="241.27" x2="507.53" y2="295.2" gradientUnits="userSpaceOnUse"><stop stop-color="#7C4EAB"/><stop offset="1" stop-color="#DD51D4"/></linearGradient><linearGradient id="f" x1="-204021" y1="119016" x2="-1516750" y2="119016" gradientUnits="userSpaceOnUse"><stop stop-color="#40447E"/><stop offset="1" stop-color="#3C3B6B"/></linearGradient><linearGradient id="g" x1="-117304" y1="69332" x2="-822024" y2="69332" gradientUnits="userSpaceOnUse"><stop stop-color="#40447E"/><stop offset="1" stop-color="#3C3B6B"/></linearGradient><linearGradient id="h" x1="-371243" y1="11620.4" x2="-370593" y2="22644.3" gradientUnits="userSpaceOnUse"><stop stop-color="#FFC444"/><stop offset="1" stop-color="#F36F56"/></linearGradient><linearGradient id="i" x1="-203724" y1="33443.1" x2="-197431" y2="52191.4" gradientUnits="userSpaceOnUse"><stop stop-color="#FFC444"/><stop offset="1" stop-color="#F36F56"/></linearGradient><linearGradient id="j" x1="211.78" y1="247.74" x2="289.64" y2="375.07" gradientUnits="userSpaceOnUse"><stop stop-color="#AA80F9"/><stop offset="1" stop-color="#6165D7"/></linearGradient><linearGradient id="k" x1="-246141" y1="122151" x2="-248293" y2="151653" gradientUnits="userSpaceOnUse"><stop stop-color="#AA80F9"/><stop offset="1" stop-color="#6165D7"/></linearGradient><linearGradient id="l" x1="301.3" y1="68.83" x2="405.96" y2="239.96" gradientUnits="userSpaceOnUse"><stop stop-color="#FF9085"/><stop offset="1" stop-color="#FB6FBB"/></linearGradient><linearGradient id="m" x1="-8822.39" y1="50149.6" x2="4104.54" y2="65542.8" gradientUnits="userSpaceOnUse"><stop stop-color="#FF9085"/><stop offset="1" stop-color="#FB6FBB"/></linearGradient><linearGradient id="n" x1="-10978.9" y1="29044.6" x2="-8389.02" y2="35144.6" gradientUnits="userSpaceOnUse"><stop stop-color="#FF9085"/><stop offset="1" stop-color="#FB6FBB"/></linearGradient><linearGradient id="o" x1="-13304.6" y1="16330" x2="-12804.5" y2="18538.9" gradientUnits="userSpaceOnUse"><stop stop-color="#FF9085"/><stop offset="1" stop-color="#FB6FBB"/></linearGradient><linearGradient id="p" x1="-17164.4" y1="64573.9" x2="13457.4" y2="86161.4" gradientUnits="userSpaceOnUse"><stop stop-color="#FF9085"/><stop offset="1" stop-color="#FB6FBB"/></linearGradient><linearGradient id="q" x1="-19282" y1="61130.5" x2="5384.3" y2="80594.5" gradientUnits="userSpaceOnUse"><stop stop-color="#FF9085"/><stop offset="1" stop-color="#FB6FBB"/></linearGradient><linearGradient id="r" x1="-21810.4" y1="65806.4" x2="11943.1" y2="87285.6" gradientUnits="userSpaceOnUse"><stop stop-color="#FF9085"/><stop offset="1" stop-color="#FB6FBB"/></linearGradient><linearGradient id="s" x1="-23416.8" y1="56725.1" x2="-4161.39" y2="73643" gradientUnits="userSpaceOnUse"><stop stop-color="#FF9085"/><stop offset="1" stop-color="#FB6FBB"/></linearGradient><linearGradient id="t" x1="-24895.6" y1="37892.7" x2="-18953.6" y2="47057.4" gradientUnits="userSpaceOnUse"><stop stop-color="#FF9085"/><stop offset="1" stop-color="#FB6FBB"/></linearGradient><linearGradient id="u" x1="375.15" y1="264.48" x2="436.95" y2="365.52" gradientUnits="userSpaceOnUse"><stop stop-color="#E38DDD"/><stop offset="1" stop-color="#9571F6"/></linearGradient><linearGradient id="v" x1="-10543.5" y1="41998.6" x2="-7435.01" y2="46287.8" gradientUnits="userSpaceOnUse"><stop stop-color="#FF9085"/><stop offset="1" stop-color="#FB6FBB"/></linearGradient><linearGradient id="w" x1="-15801" y1="48598.6" x2="-16598.6" y2="60406" gradientUnits="userSpaceOnUse"><stop stop-color="#FFC444"/><stop offset="1" stop-color="#F36F56"/></linearGradient><linearGradient id="x" x1="-13765.6" y1="57554.1" x2="-11814.2" y2="69120.3" gradientUnits="userSpaceOnUse"><stop stop-color="#AA80F9"/><stop offset="1" stop-color="#6165D7"/></linearGradient></defs></svg>