<svg width="455" height="448" fill="none" xmlns="http://www.w3.org/2000/svg"><path opacity=".5" d="M410.15 85.31c-6.93-9.5-66.22-88.08-162.33-84.25-4.8.2-98.54 5.15-133.12 66.75-25.57 45.57 1.5 86-29.7 117.04-27.19 27.05-60.6 9.14-77.3 31.02-25.45 33.32 15.07 123.3 77.35 173.5 64.3 51.81 187.3 89.83 282.9 20.7 107.33-77.63 106.25-236.9 42.2-324.76Z" fill="url(#a)" fill-opacity=".5"/><g style="mix-blend-mode:soft-light"><g style="mix-blend-mode:soft-light"><path d="M110.94 284.07c-8.93-.01-17.85-.6-26.7-1.76l.1-.8c57.39 7.5 94.26-11.3 98.3-13.47-20.18-31.44-5.92-77.68-5.77-78.14l.75.24c-.14.46-14.4 46.7 5.9 77.82l.24.35-.36.21c-.33.19-27.41 15.55-72.46 15.55Z" fill="white"/></g></g><path d="M146.39 243.9a2.25 2.25 0 0 1-2.23-2.03c-1.97-20.63-8.7-40.23-18.94-55.19-9.08-13.25-19.89-21.16-28.91-21.16h-.03c-32.89.06-39.77 75.57-39.83 76.34a2.25 2.25 0 0 1-4.48-.39c.28-3.27 7.33-80.36 44.3-80.43h.04c10.67 0 22.55 8.42 32.62 23.12 10.66 15.57 17.66 35.92 19.7 57.3a2.25 2.25 0 0 1-2.03 2.45h-.21Z" fill="url(#b)"/><path d="m9.38 399.3 43.3 21.91 26.23-80.49L35.7 232.8l-12.26 3-18.6 154.98a8.4 8.4 0 0 0 4.55 8.51Z" fill="url(#c)"/><path style="mix-blend-mode:multiply" opacity=".52" d="M78.91 340.72 35.7 232.8l-7.23 1.78c-.83 11.62-.79 23.28.12 34.9 2.9 36.73 12.52 46.96 7.86 72.59-3.87 21.31-12.34 24.2-11.6 38.54.8 15.62 11.7 28.7 24.65 38.98l3.2 1.61 26.22-80.48Z" fill="url(#d)"/><path d="M35.69 232.81H197.1l53.42 172.46L52.68 421.2l-17-188.4Z" fill="url(#e)"/><path d="M85.69 247.6a2.25 2.25 0 0 1-2.19-1.74c-.46-1.96-11.06-48.16 3.89-70.85 4.29-6.5 10.27-10.46 17.8-11.79 38.66-6.81 62.45 76.21 63.44 79.75a2.22 2.22 0 0 1-1.54 2.82 2.22 2.22 0 0 1-1.73-.21 2.26 2.26 0 0 1-1.05-1.4c-.23-.82-23.66-82.66-58.34-76.54-6.35 1.12-11.2 4.34-14.83 9.85-13.9 21.08-3.38 66.88-3.27 67.34a2.25 2.25 0 0 1-2.18 2.76Z" fill="url(#f)"/><g style="mix-blend-mode:multiply" opacity=".3"><path style="mix-blend-mode:multiply" opacity=".3" d="M197.1 232.8h-80.08c-3.95 4.02-6.75 8.65-7.02 13.85-1.25 24.4 54.84 32.41 60.25 65.85 3.9 24.12-20.11 51.96-41.54 64.36-22.57 13.07-37.87 6.45-53.13 20.96-6.71 6.37-10.8 14.34-13.22 22.6l188.16-15.16-53.42-172.45Z" fill="url(#g)"/></g><path d="M91.9 248.95a6.27 6.27 0 1 0-12.38-2 6.27 6.27 0 0 0 12.38 2Z" fill="url(#h)"/><path d="M174.65 247.58a6.3 6.3 0 1 0-12.42-2.01 6.3 6.3 0 0 0 12.42 2Z" fill="url(#i)"/><path d="M315.61 53.92c14.02 118.5 28.04 235.75 42.06 351.78.63 5.2-2.96 9.8-8 10.24-56.34 5.34-112.7 10.8-169.04 16.38-10.05.49-15.57-5.13-16.22-10.75a164499.16 164499.16 0 0 1-43.3-379.7c-.65-5.74 4.23-10.67 14.28-10.18 56.63 4.04 113.25 8.03 169.88 11.96 5.06.33 9.71 4.95 10.34 10.27Z" fill="#26264F"/><path d="M323.44 53.67c14.1 119.02 28.21 236.78 42.32 353.3.64 5.21-2.98 9.84-8.04 10.27a53237.33 53237.33 0 0 0-175.54 15.16c-5.33.48-10.24-3.75-10.9-9.4a163183.15 163183.15 0 0 1-43.57-381.46c-.65-5.76 3.22-10.2 8.6-9.83 58.9 3.94 117.8 7.82 176.71 11.65 5.1.34 9.78 4.97 10.42 10.31Z" fill="url(#j)"/><path d="M320.04 73.14a136100 136100 0 0 0 39.2 327.58c.6 4.89-2.78 9.2-7.51 9.59a52450 52450 0 0 0-165.09 13.76c-4.97.43-9.54-3.53-10.15-8.78A155192.28 155192.28 0 0 1 136.2 63.23c-.61-5.36 2.99-9.5 8-9.21 55.36 3.22 110.73 6.41 166.1 9.57 4.76.27 9.14 4.58 9.73 9.55Z" fill="url(#k)"/><path d="M320.04 73.14a136100 136100 0 0 0 39.2 327.58c.6 4.89-2.78 9.2-7.51 9.59a52450 52450 0 0 0-165.09 13.76c-4.97.43-9.54-3.53-10.15-8.78A155192.28 155192.28 0 0 1 136.2 63.23c-.61-5.36 2.99-9.5 8-9.21 55.36 3.22 110.73 6.41 166.1 9.57 4.76.27 9.14 4.58 9.73 9.55Z" fill="url(#l)"/><g style="mix-blend-mode:multiply" opacity=".35"><path d="M310.32 63.58c-54.72-3.11-109.43-6.27-164.14-9.45a125.53 125.53 0 0 0 9.6 31.1c18.16 39.37 44.82 41.54 55.25 75.84 10.75 35.35-13.49 46.41-1.65 78.33 12.85 34.63 44.36 29.62 61.01 67.6 14.36 32.75-4.12 47.72 10.72 67.62 16.27 21.8 46.37 14.41 77.61 21.8-12.9-106.71-25.79-214.47-38.68-323.28-.6-4.97-4.97-9.28-9.72-9.56Z" fill="url(#m)"/></g><path d="M230.4 49.05c.22 1.92-1.06 3.39-2.88 3.28-1.8-.11-3.46-1.76-3.69-3.69-.22-1.93 1.07-3.4 2.89-3.28a4.24 4.24 0 0 1 3.68 3.69Z" fill="#DE8BDF"/><path d="M250.17 155.6c7 0 12.66-6.68 12.66-14.93s-5.67-14.94-12.66-14.94c-7 0-12.67 6.69-12.67 14.94s5.67 14.94 12.67 14.94Z" fill="#DD51D4"/><path d="M250.17 155.6c7 0 12.66-6.68 12.66-14.93s-5.67-14.94-12.66-14.94c-7 0-12.67 6.69-12.67 14.94s5.67 14.94 12.67 14.94Z" fill="black" fill-opacity=".2"/><path d="M300.58 155.6c7 0 12.66-6.68 12.66-14.93s-5.67-14.94-12.66-14.94c-7 0-12.66 6.69-12.66 14.94s5.66 14.94 12.66 14.94Z" fill="#DD51D4"/><path d="M300.58 155.6c7 0 12.66-6.68 12.66-14.93s-5.67-14.94-12.66-14.94c-7 0-12.66 6.69-12.66 14.94s5.66 14.94 12.66 14.94Z" fill="black" fill-opacity=".2"/><path d="M275.23 155.6c7.1 0 12.85-6.68 12.85-14.93s-5.75-14.94-12.85-14.94-12.84 6.69-12.84 14.94 5.75 14.94 12.84 14.94Z" fill="#D8DEE8"/><path d="M350.99 155.6c7 0 12.66-6.68 12.66-14.93s-5.67-14.94-12.66-14.94c-7 0-12.67 6.69-12.67 14.94S344 155.6 351 155.6Z" fill="#DD51D4"/><path d="M350.99 155.6c7 0 12.66-6.68 12.66-14.93s-5.67-14.94-12.66-14.94c-7 0-12.67 6.69-12.67 14.94S344 155.6 351 155.6Z" fill="black" fill-opacity=".2"/><path d="M325.64 155.6c7.1 0 12.85-6.68 12.85-14.93s-5.75-14.94-12.85-14.94c-7.09 0-12.84 6.69-12.84 14.94s5.75 14.94 12.84 14.94Z" fill="#D8DEE8"/><path d="M376.05 155.6c7.1 0 12.85-6.68 12.85-14.93s-5.75-14.94-12.85-14.94-12.84 6.69-12.84 14.94 5.75 14.94 12.84 14.94Z" fill="#D8DEE8"/><path d="M224.82 155.6c7.1 0 12.85-6.68 12.85-14.93s-5.75-14.94-12.85-14.94-12.84 6.69-12.84 14.94 5.75 14.94 12.84 14.94Z" fill="#D8DEE8"/><path d="m133.67 52.53 78.58 90.16h202.83L316.8 63.95 133.67 52.53Z" fill="url(#n)"/><path d="m133.67 52.53 78.58 90.16h202.83L316.8 63.95 133.67 52.53Z" fill="#DD51D4"/><path d="m133.67 52.53 78.58 90.16h25.42L154.8 53.85l-21.14-1.32Z" fill="#F4F7FA"/><path d="m177.5 55.27 85.21 87.42h25.1l-87.44-86-22.86-1.42Z" fill="#F4F7FA"/><path d="m223.4 58.13 89.58 84.56h25.22l-91.58-83.11-23.21-1.45Z" fill="#F4F7FA"/><path d="M293.57 62.5 270 61.04l93.49 81.65h25.35L293.57 62.5Z" fill="#F4F7FA"/><path d="M388.86 142.7c.84 7.29 6.13 12.91 12.54 12.91 6.4 0 11.7-5.63 12.53-12.92h-25.07Z" fill="#DD51D4"/><path d="M388.86 142.7c.84 7.29 6.13 12.91 12.54 12.91 6.4 0 11.7-5.63 12.53-12.92h-25.07Z" fill="black" fill-opacity=".2"/><path opacity=".63" d="M292.46 199.01c-10.97-25.28-38.8-37.55-62.15-27.42-23.36 10.14-33.4 38.85-22.44 64.13 10.97 25.28 38.8 37.55 62.16 27.42 23.36-10.14 33.4-38.85 22.43-64.13Zm-34.44 36.03.94 7.12-6.85.9-.86-6.63c-4.7.4-9.41-.26-12.27-1.45l1.03-8.44A24.87 24.87 0 0 0 252 228.1c3.98-.52 6.5-2.42 6.13-5.21-.35-2.65-2.8-4.03-8.19-5.1-7.8-1.53-13.36-4.35-14.25-11.13-.8-6.14 2.89-11.53 10.16-13.97l-.87-6.64 6.84-.9.81 6.15c4.7-.4 7.98.16 10.43.97l-.99 8.16c-1.91-.53-5.33-1.72-10.36-1.05-4.54.59-5.75 2.74-5.49 4.7.3 2.3 2.94 3.43 9.17 4.9 8.7 1.84 12.55 5.24 13.38 11.52.8 6.21-2.9 12.1-10.75 14.55Z" fill="#F4F7FA"/><g opacity=".63"><path opacity=".63" d="m317.52 336.28-106.91 3.24a7.6 7.6 0 0 1-7.75-6.46l-4.33-28.5a7.6 7.6 0 0 1 7.34-8.75l107.03-2.47a7.6 7.6 0 0 1 7.7 6.46l4.22 27.74a7.59 7.59 0 0 1-7.3 8.74Z" fill="#F4F7FA"/><path opacity=".63" d="m321.12 359.71-106.86 3.66a7.6 7.6 0 0 1-7.77-6.46l-.05-.27a7.6 7.6 0 0 1 7.28-8.74l106.9-3.39a7.6 7.6 0 0 1 .5 15.2Z" fill="#F4F7FA"/></g><defs><linearGradient id="a" x1="454.25" y1="43.55" x2="-99.7" y2="99.75" gradientUnits="userSpaceOnUse"><stop stop-color="#7C4EAB"/><stop offset="1" stop-color="#DD51D4"/></linearGradient><linearGradient id="b" x1="102972" y1="135379" x2="105430" y2="172641" gradientUnits="userSpaceOnUse"><stop stop-color="#E38DDD"/><stop offset="1" stop-color="#9571F6"/></linearGradient><linearGradient id="c" x1="-13.59" y1="256.75" x2="41.13" y2="348.51" gradientUnits="userSpaceOnUse"><stop stop-color="#FF9085"/><stop offset="1" stop-color="#FB6FBB"/></linearGradient><linearGradient id="d" x1="24160.8" y1="380112" x2="80098.9" y2="407058" gradientUnits="userSpaceOnUse"><stop stop-color="#FF9085"/><stop offset="1" stop-color="#FB6FBB"/></linearGradient><linearGradient id="e" x1="120263" y1="354128" x2="301982" y2="513787" gradientUnits="userSpaceOnUse"><stop stop-color="#FF9085"/><stop offset="1" stop-color="#FB6FBB"/></linearGradient><linearGradient id="f" x1="103738" y1="121243" x2="111476" y2="173213" gradientUnits="userSpaceOnUse"><stop stop-color="#E38DDD"/><stop offset="1" stop-color="#9571F6"/></linearGradient><linearGradient id="g" x1="185970" y1="423694" x2="362553" y2="560146" gradientUnits="userSpaceOnUse"><stop stop-color="#FF9085"/><stop offset="1" stop-color="#FB6FBB"/></linearGradient><linearGradient id="h" x1="11984.9" y1="25013.6" x2="12178.7" y2="25085.6" gradientUnits="userSpaceOnUse"><stop stop-color="#E38DDD"/><stop offset="1" stop-color="#9571F6"/></linearGradient><linearGradient id="i" x1="18404.5" y1="25025.5" x2="18598.9" y2="25097.6" gradientUnits="userSpaceOnUse"><stop stop-color="#E38DDD"/><stop offset="1" stop-color="#9571F6"/></linearGradient><linearGradient id="j" x1="156.34" y1="231.32" x2="505.69" y2="176.04" gradientUnits="userSpaceOnUse"><stop stop-color="#444B8C"/><stop offset="1" stop-color="#26264F"/></linearGradient><linearGradient id="k" x1="313.39" y1="95.7" x2="-30.64" y2="809.29" gradientUnits="userSpaceOnUse"><stop stop-color="#FFC444"/><stop offset="1" stop-color="#F36F56"/></linearGradient><linearGradient id="l" x1="359.31" y1="89.32" x2="85.35" y2="105.8" gradientUnits="userSpaceOnUse"><stop stop-color="#7C4EAB"/><stop offset="1" stop-color="#DD51D4"/></linearGradient><linearGradient id="m" x1="358.72" y1="86.79" x2="97.86" y2="102.95" gradientUnits="userSpaceOnUse"><stop stop-color="#7C4EAB"/><stop offset="1" stop-color="#DD51D4"/></linearGradient><linearGradient id="n" x1="246938" y1="61480.2" x2="730357" y2="61480.2" gradientUnits="userSpaceOnUse"><stop stop-color="#FF9085"/><stop offset="1" stop-color="#FB6FBB"/></linearGradient></defs></svg>