<svg width="241" height="58" fill="none" xmlns="http://www.w3.org/2000/svg"><path d="M85.2 37.25a12 12 0 0 1-2.65-.35l-3.16-.87.86-2.58c1.79.64 3.28.96 4.47.96.63 0 1.16-.15 1.59-.45.42-.3.64-.7.64-1.2 0-.52-.14-.9-.42-1.15a3.7 3.7 0 0 0-1.53-.67l-1.72-.45c-2.38-.62-3.57-2.02-3.57-4.2 0-1.32.5-2.4 1.5-3.26a6.02 6.02 0 0 1 3.98-1.27c.66 0 1.44.11 2.33.35l3.15.86-.86 2.58a12.51 12.51 0 0 0-3.92-.96c-.59 0-1.09.16-1.5.48-.4.3-.6.7-.6 1.18 0 .51.14.9.42 1.15.27.25.78.48 1.53.67l1.68.44a4.9 4.9 0 0 1 2.74 1.57c.56.68.83 1.56.83 2.64 0 1.3-.49 2.38-1.46 3.25-.98.85-2.42 1.28-4.34 1.28Zm13.62 0c-1.6 0-2.72-.4-3.38-1.18-.63-.79-.95-1.99-.95-3.6v-7.62h-2.36v-2.8h2.36v-3.73l4.05-.8v4.52h3.5v2.8h-3.5v7.69c0 1.25.5 1.88 1.53 1.88.61 0 1.27-.2 1.97-.57l.64 2.39a7.53 7.53 0 0 1-3.86 1.02Zm9.93 0a4.46 4.46 0 0 1-4.72-4.53c0-.91.3-1.65.9-2.2a6.45 6.45 0 0 1 2.86-1.34l5.13-1.27v-1.3c0-.62-.2-1.11-.57-1.47a2.07 2.07 0 0 0-1.53-.55c-.75 0-2.42.57-5.04 1.7l-1.11-2.59 3.63-1.34c1.1-.4 1.91-.6 2.42-.6 1.94 0 3.45.5 4.56 1.53a5.03 5.03 0 0 1 1.69 3.95v5.48c0 .4.06 1.01.19 1.82.15.78.34 1.45.57 2l-3.47.7c-.43-.46-.87-1.11-1.34-1.94-1.42 1.3-2.81 1.95-4.17 1.95Zm1.43-2.84c.83 0 1.74-.48 2.74-1.43v-3.22l-3.19.92c-1.02.3-1.53.86-1.53 1.69a2 2 0 0 0 .55 1.5c.36.36.83.54 1.43.54Zm15.2 2.84c-1.59 0-2.71-.4-3.37-1.18-.64-.79-.96-1.99-.96-3.6v-7.62h-2.36v-2.8h2.36v-3.73l4.05-.8v4.52h3.5v2.8h-3.5v7.69c0 1.25.5 1.88 1.53 1.88.61 0 1.27-.2 1.97-.57l.64 2.39a7.53 7.53 0 0 1-3.86 1.02Zm45.01-.3h-4.04v-8.7a5.1 5.1 0 0 0-.58-2.76c-.36-.6-.94-.9-1.75-.9-.8 0-1.68.48-2.61 1.44v10.93h-4.05v-8.7c0-1.28-.18-2.2-.54-2.77-.36-.6-.96-.9-1.79-.9-.78 0-1.65.48-2.6 1.44v10.93h-4.06V26.28c0-.4-.07-1-.22-1.78a8.7 8.7 0 0 0-.54-2.04l3.44-.7c.45.44.9 1.1 1.37 1.94 1.34-1.3 2.73-1.94 4.18-1.94 2.14 0 3.6.75 4.36 2.26a5.76 5.76 0 0 1 2-1.6 5.69 5.69 0 0 1 2.62-.66c1.62 0 2.82.47 3.6 1.4.81.93 1.21 2.39 1.21 4.37v9.43Zm7.35.3a4.46 4.46 0 0 1-4.72-4.53c0-.91.3-1.65.9-2.2a6.45 6.45 0 0 1 2.87-1.34l5.13-1.27v-1.3c0-.62-.2-1.11-.58-1.47a2.07 2.07 0 0 0-1.53-.55c-.74 0-2.42.57-5.03 1.7l-1.12-2.59 3.64-1.34a8.1 8.1 0 0 1 2.42-.6c1.93 0 3.45.5 4.56 1.53a5.03 5.03 0 0 1 1.68 3.95v5.48c0 .4.07 1.01.2 1.82.14.78.34 1.45.57 2l-3.47.7a9.92 9.92 0 0 1-1.34-1.94c-1.43 1.3-2.82 1.95-4.18 1.95Zm1.44-2.84c.82 0 1.74-.48 2.74-1.43v-3.22l-3.19.92c-1.02.3-1.53.86-1.53 1.69 0 .64.18 1.14.54 1.5.36.36.84.54 1.44.54Zm14.46 2.55h-4.05V26.28c0-.4-.07-1-.22-1.78a8.7 8.7 0 0 0-.54-2.04l3.44-.7a5.36 5.36 0 0 1 1.37 2.67 5 5 0 0 1 1.69-1.97 4.2 4.2 0 0 1 2.33-.7c.46 0 .89.07 1.27.22l-.7 3.47h-1.05c-1 0-1.79.25-2.36.74-.55.47-.94 1.25-1.18 2.36v8.4Zm21.05 0h-4.98l-4.94-7.71v7.7h-4.04V15.68l4.05-.8v13.26l5.03-6.09h4.56l-6 6.67 6.32 8.25Zm7.25.29c-2.4 0-4.22-.72-5.45-2.14-1.21-1.44-1.82-3.33-1.82-5.67s.63-4.2 1.88-5.58c1.26-1.4 3-2.1 5.23-2.1 4.31 0 6.47 2.24 6.47 6.72 0 .47-.05.86-.16 1.18h-9.24c0 1.6.28 2.78.86 3.57a2.9 2.9 0 0 0 2.45 1.18c1.17 0 2.7-.43 4.6-1.28l1.1 2.59-3.37 1.24a8.6 8.6 0 0 1-2.55.29Zm-.38-12.66c-.85 0-1.52.3-2.01.9a3.5 3.5 0 0 0-.7 2.23h5.2c0-2.08-.84-3.13-2.5-3.13Zm14.63 12.66c-1.6 0-2.72-.4-3.38-1.18-.64-.79-.96-1.99-.96-3.6v-7.62h-2.36v-2.8h2.36v-3.73l4.05-.8v4.52h3.5v2.8h-3.5v7.69c0 1.25.5 1.88 1.53 1.88.61 0 1.27-.2 1.97-.57l.64 2.39a7.53 7.53 0 0 1-3.85 1.02Z" fill="#54618E"/><path d="M143.75 36.96h-3.85v-4.9h-8.7l-.86-2.5 9.08-13h4.33v12.5h2.04v3h-2.04v4.9Zm-3.85-7.9v-8.29l-5.64 8.29h5.64Z" fill="#D653D2"/><mask id="b" style="mask-type:alpha" maskUnits="userSpaceOnUse" x="0" y="0" width="60" height="58"><ellipse cx="30" cy="29" rx="30" ry="29" fill="url(#a)"/></mask><g mask="url(#b)"><ellipse cx="30" cy="29" rx="30" ry="29" fill="url(#c)"/><path d="M39.54 37.05V4.8c0-.49.01-1.02.04-1.6l.18-1.79-27.54 35.63h27.32Zm25.5 0v2.26c0 .32-.11.58-.32.78-.18.18-.48.26-.9.26h-20.5v17.67h-3.78V40.35H9.44c-.46 0-.8-.08-1.04-.26a1.6 1.6 0 0 1-.5-.78l-.4-2.04 32-40.9h3.82v40.68h21.71Z" fill="white"/></g><defs><linearGradient id="a" x1="69" y1="-17.4" x2="19.65" y2="59.54" gradientUnits="userSpaceOnUse"><stop stop-color="#FF00AA"/><stop offset="1" stop-color="#8912DE"/></linearGradient><linearGradient id="c" x1="69" y1="-17.4" x2="19.65" y2="59.54" gradientUnits="userSpaceOnUse"><stop stop-color="#FF00AA"/><stop offset="1" stop-color="#8912DE"/></linearGradient></defs></svg>